<svg xmlns="http://www.w3.org/2000/svg" viewBox="0 0 32 32" style="enable-background:new 0 0 32 32" xml:space="preserve"><linearGradient id="a" gradientUnits="userSpaceOnUse" x1="25.316" y1="29.352" x2="6.681" y2="6.647" gradientTransform="matrix(1 0 0 -1 0 34)"><stop offset="0" style="stop-color:#003d80"/><stop offset="1" style="stop-color:#458ff6"/></linearGradient><path d="M31.2 9.7h-8.9v-5c0-2.6-2.1-4.8-4.8-4.8h-7c-.3.1-.5.2-.7.5 0 .1-.1.2-.1.4v8.9h-5C2.1 9.7 0 11.8 0 14.5v7c0 .4.4.8.8.8h8.9v5c0 2.6 2.1 4.8 4.8 4.8h7c.4 0 .8-.4.8-.8v-8.9h5c2.6 0 4.8-2.1 4.8-4.8v-7c-.1-.5-.5-.9-.9-.9zm-16 11c-1.1 0-2-.9-2-2s.9-2 2-2c.2 0 .3 0 .5.1.3.1.6 0 .8-.2.2-.2.3-.5.2-.8 0-.2-.1-.3-.1-.5 0-1.1.9-2 2-2s2 .9 2 2v5.5h-5.4zm15.2-3.2c0 1.7-1.4 3.1-3.1 3.1h-5v-5.5c0-2-1.6-3.6-3.6-3.6-1.9 0-3.5 1.5-3.6 3.4-1.9.1-3.4 1.7-3.4 3.6 0 .8.3 1.6.7 2.2.2.3.5.5.7.7.6.5 1.4.7 2.2.7h5.5v8.1h-6.2c-1.7 0-3.1-1.4-3.1-3.1v-5.8c0-.2-.1-.4-.2-.5l-.1-.1c-.1-.1-.3-.2-.6-.2h-9v-6.2c0-1.7 1.4-3.1 3.1-3.1h5.8c.4 0 .8-.4.8-.8V1.6h6.2c1.7 0 3.1 1.4 3.1 3.1v5.8c0 .4.4.8.8.8h8.9v6.2z" style="fill:url(#a)"/><linearGradient id="b" gradientUnits="userSpaceOnUse" x1="21.429" y1="11.915" x2="21.508" y2="7.155" gradientTransform="matrix(1 0 0 -1 0 34)"><stop offset="0" style="stop-color:#000"/><stop offset="1" style="stop-color:#000;stop-opacity:0"/></linearGradient><path d="M20.7 22.3h1.6v1.5l-1.6 5.1v-6.6z" style="fill:url(#b)"/><linearGradient id="c" gradientUnits="userSpaceOnUse" x1="21.556" y1="12.143" x2="21.477" y2="15.762" gradientTransform="matrix(1 0 0 -1 0 34)"><stop offset="0" style="stop-color:#000"/><stop offset="1" style="stop-color:#000;stop-opacity:0"/></linearGradient><path d="M20.7 20.7v-.6l1.6-3.3v3.9h-1.6z" style="fill:url(#c)"/></svg>