<svg xmlns="http://www.w3.org/2000/svg" viewBox="0 0 384 100" style="enable-background:new 0 0 384 100" xml:space="preserve"><linearGradient id="a" gradientUnits="userSpaceOnUse" x1="79.11" y1="87.474" x2="20.875" y2="16.521" gradientTransform="matrix(1 0 0 -1 0 102)"><stop offset="0" style="stop-color:#003d80"/><stop offset="1" style="stop-color:#458ff6"/></linearGradient><path d="M97.5 30.3H69.7V14.9C69.7 6.7 63 0 54.8 0h-22c-.9 0-1.6.4-2.1 1.1-.3.4-.4.9-.4 1.4v27.8H14.9C6.7 30.3 0 37 0 45.2v22c0 1.4 1.1 2.5 2.5 2.5h27.8v15.5c0 8.2 6.7 14.9 14.9 14.9h22c1.4 0 2.5-1.1 2.5-2.5V69.7h15.5c8.2 0 14.9-6.7 14.9-14.9v-22c-.1-1.3-1.2-2.5-2.6-2.5zM47.6 64.6c-3.5 0-6.3-2.8-6.3-6.3s2.8-6.3 6.3-6.3c.5 0 1 .1 1.5.2.9.2 1.8 0 2.4-.7.6-.6.9-1.5.7-2.4-.1-.5-.2-1-.2-1.5 0-3.5 2.8-6.3 6.3-6.3s6.3 2.8 6.3 6.3v17.1h-17zM95 54.8c0 5.4-4.4 9.8-9.8 9.8H69.7v-17c0-6.3-5.1-11.4-11.4-11.4-6 0-11 4.8-11.3 10.7-6 .3-10.7 5.3-10.7 11.3 0 2.6.8 4.9 2.3 6.8.7.9 1.4 1.6 2.3 2.3 1.9 1.4 4.2 2.3 6.8 2.3h17.1V95H45.2c-5.4 0-9.8-4.4-9.8-9.8v-18c0-.6-.2-1.2-.6-1.6 0-.1-.1-.1-.2-.2-.5-.5-1.1-.7-1.8-.7H5V45.2c0-5.4 4.4-9.8 9.8-9.8h18c1.4 0 2.5-1.1 2.5-2.5V5h19.4c5.4 0 9.8 4.4 9.8 9.8v18c0 1.4 1.1 2.5 2.5 2.5h28v19.5z" style="fill:url(#a)"/><linearGradient id="b" gradientUnits="userSpaceOnUse" x1="66.963" y1="32.985" x2="67.209" y2="18.11" gradientTransform="matrix(1 0 0 -1 0 102)"><stop offset="0" style="stop-color:#000"/><stop offset="1" style="stop-color:#000;stop-opacity:0"/></linearGradient><path d="M64.6 69.7h5v4.6l-5 16V69.7z" style="fill:url(#b)"/><linearGradient id="c" gradientUnits="userSpaceOnUse" x1="67.358" y1="33.696" x2="67.112" y2="45.006" gradientTransform="matrix(1 0 0 -1 0 102)"><stop offset="0" style="stop-color:#000"/><stop offset="1" style="stop-color:#000;stop-opacity:0"/></linearGradient><path d="M64.6 64.6v-1.9l5-10.4v12.3h-5z" style="fill:url(#c)"/><path d="M121.4 75c3.2 0 5.1 1.6 5.1 4.3 0 2.7-1.9 4.3-5.1 4.3H118v3.9h-1.3V75h4.7zm-.1 7.3c2.5 0 3.8-1.1 3.8-3.1s-1.3-3.1-3.8-3.1H118v6.2h3.3zm8.7-2.4c.6-1.2 1.8-1.9 3.5-1.9v1.2h-.3c-2 0-3.2 1.2-3.2 3.5v4.8h-1.3v-9.4h1.2v1.8zm6.5-3.9c-.5 0-.9-.4-.9-.9s.4-.9.9-.9.9.4.9.9-.4.9-.9.9zm-.7 11.4V78h1.3v9.4h-1.3zm11.4-9.3h1.2l-4.2 9.4H143l-4.2-9.4h1.3l3.5 8 3.6-8zm6.1-.1c2.4 0 3.8 1.2 3.8 3.6v5.8h-1.2V86c-.6 1-1.7 1.5-3.2 1.5-2.1 0-3.4-1.1-3.4-2.7 0-1.4.9-2.7 3.6-2.7h3v-.6c0-1.6-.9-2.5-2.7-2.5-1.2 0-2.4.4-3.1 1.1l-.6-.9c.9-.7 2.3-1.2 3.8-1.2zm-.5 8.5c1.4 0 2.5-.7 3-1.9v-1.5h-2.9c-1.8 0-2.4.7-2.4 1.7-.1 1.1.8 1.7 2.3 1.7zM165 86l.4.9c-.5.4-1.2.7-2 .7-1.8 0-2.7-1-2.7-2.7v-5.7H159v-1.1h1.7v-2h1.3v2h2.8v1.1H162v5.6c0 1.1.6 1.7 1.6 1.7.5-.1 1-.2 1.4-.5zm10.6-3.2v.4h-7.8c.1 2 1.6 3.3 3.7 3.3 1.1 0 2.2-.4 2.9-1.2l.6.7c-.8 1-2.1 1.5-3.6 1.5-2.9 0-4.9-2-4.9-4.8s1.9-4.8 4.6-4.8c2.6.1 4.5 2 4.5 4.9zm-4.6-3.7c-1.8 0-3.2 1.3-3.3 3.1h6.6c-.1-1.8-1.4-3.1-3.3-3.1zm17.5 8.5c-3.7 0-6.5-2.7-6.5-6.3 0-3.7 2.8-6.3 6.5-6.3 1.8 0 3.5.6 4.6 1.8l-.8.8c-1-1-2.3-1.5-3.7-1.5-3 0-5.3 2.2-5.3 5.2s2.3 5.2 5.3 5.2c1.4 0 2.7-.4 3.7-1.5l.8.8c-1.1 1.1-2.8 1.8-4.6 1.8zm7.1-.2V74.2h1.3v13.2h-1.3zM201 76c-.5 0-.9-.4-.9-.9s.4-.9.9-.9.9.4.9.9c.1.5-.3.9-.9.9zm-.6 11.4V78h1.3v9.4h-1.3zM210 78c2.3 0 3.8 1.3 3.8 4v5.4h-1.3v-5.3c0-2-1-3-2.8-3-2 0-3.3 1.2-3.3 3.4v4.9h-1.3V78h1.2v1.7c.8-1 2-1.7 3.7-1.7zm7.9-2c-.5 0-.9-.4-.9-.9s.4-.9.9-.9.9.4.9.9-.4.9-.9.9zm-.7 11.4V78h1.3v9.4h-1.3zm8.7.1c-2.8 0-4.8-2-4.8-4.8s2-4.8 4.8-4.8c1.6 0 2.9.6 3.7 1.9l-.9.6c-.6-.9-1.6-1.4-2.7-1.4-2 0-3.5 1.5-3.5 3.7s1.5 3.7 3.5 3.7c1.1 0 2.1-.4 2.7-1.4l.9.6c-.8 1.3-2.1 1.9-3.7 1.9z" style="fill:#458ff6"/><path d="M131.8 67.1V32.9h7v13.8h15V32.9h7v34.3h-7V52.8h-15v14.3h-7zm48.2 0c-2.8 0-5.3-.5-7.4-1.6-2.1-1.1-3.7-2.6-4.9-4.5-1.1-1.9-1.7-4-1.7-6.4 0-2.6.5-4.9 1.6-6.9s2.5-3.5 4.4-4.6c1.9-1.1 4-1.6 6.3-1.6 2.8 0 5.1.6 6.8 1.8 1.8 1.2 3.1 2.8 3.9 4.7.8 2 1.2 4.1 1.2 6.6v1.2c0 .4-.1.8-.1 1h-16.9c.3 1 .7 1.9 1.3 2.5.7.7 1.5 1.2 2.4 1.6 1 .3 2.1.5 3.3.5h7v5.7H180zm-6.9-14.8h10.4c-.1-.6-.2-1.2-.3-1.7-.2-.6-.4-1-.7-1.5-.3-.4-.6-.8-1-1.1-.4-.3-.8-.5-1.4-.7-.5-.2-1.1-.2-1.7-.2-.8 0-1.6.1-2.2.4-.6.3-1.1.7-1.6 1.2-.4.5-.8 1-1 1.7-.3.6-.4 1.2-.5 1.9zm31.7 15.4c-2.3 0-4.3-.6-6-1.8-1.7-1.2-3-2.7-4-4.7-.9-2-1.4-4.2-1.4-6.6 0-2.4.5-4.7 1.6-6.7s2.6-3.6 4.6-4.7c2-1.2 4.4-1.8 7.1-1.8 2.8 0 5.2.6 7.1 1.8 1.9 1.2 3.4 2.8 4.4 4.7 1 2 1.5 4.2 1.5 6.6v12.4H213V63c-.5.9-1.1 1.7-1.9 2.4-.7.7-1.6 1.3-2.6 1.7-1.1.4-2.3.6-3.7.6zm1.9-5.7c1.3 0 2.4-.3 3.4-1 .9-.7 1.7-1.5 2.2-2.6.5-1.1.8-2.4.8-3.8s-.3-2.6-.8-3.7-1.2-2-2.2-2.6c-.9-.7-2.1-1-3.4-1-1.3 0-2.5.3-3.5 1-.9.7-1.7 1.5-2.2 2.6-.5 1.1-.7 2.3-.7 3.7 0 1.4.2 2.6.7 3.8.5 1.1 1.3 2 2.2 2.6 1 .7 2.1 1 3.5 1zm19.4 5.1V31.4h6.7v35.7h-6.7zm21.8 0c-2.2 0-4-.6-5.2-1.9-1.2-1.3-1.9-3-1.9-5.2V35.9h6.7v23.9c0 .4.1.8.4 1.1.3.3.7.4 1.1.4h5.4V67h-6.5zm-11.4-19.2v-5.7h18v5.7h-18zm23.1 19.2V31.4h6.7v12.5c1-.8 2.2-1.5 3.4-1.8 1.2-.4 2.4-.5 3.6-.5 2.4 0 4.4.5 6 1.5 1.6 1 2.8 2.4 3.6 4.1.8 1.7 1.2 3.6 1.2 5.6v14.3h-6.7V52.8c0-1-.2-1.9-.7-2.7-.5-.8-1.2-1.5-2-2s-1.7-.7-2.7-.7c-1 0-1.9.2-2.7.7-.8.5-1.5 1.1-2 1.9-.5.8-.7 1.7-.7 2.6v14.5h-7zm42.8 0c-2.6 0-4.9-.6-6.9-1.7s-3.6-2.6-4.8-4.5c-1.2-1.9-1.8-4-1.8-6.4 0-2.3.6-4.5 1.8-6.3 1.2-1.9 2.8-3.4 4.8-4.5s4.3-1.7 6.9-1.7h3.1v5.7h-3.1c-1.4 0-2.6.3-3.6.9-1 .6-1.7 1.4-2.3 2.4-.5 1-.8 2.2-.8 3.4 0 1.3.3 2.4.8 3.5.6 1 1.3 1.8 2.3 2.4 1 .6 2.2.9 3.6.9h3.1v5.7h-3.1zm17.6.6c-2.3 0-4.3-.6-6-1.8-1.7-1.2-3-2.7-4-4.7-.9-2-1.4-4.2-1.4-6.6 0-2.4.5-4.7 1.6-6.7s2.6-3.6 4.6-4.7c2-1.2 4.4-1.8 7.1-1.8 2.8 0 5.2.6 7.1 1.8 1.9 1.2 3.4 2.8 4.4 4.7 1 2 1.5 4.2 1.5 6.6v12.4h-6.7V63h-.1c-.5.9-1.1 1.7-1.9 2.4-.7.7-1.6 1.3-2.6 1.7-.9.4-2.2.6-3.6.6zm1.9-5.7c1.3 0 2.4-.3 3.4-1 .9-.7 1.7-1.5 2.2-2.6.5-1.1.8-2.4.8-3.8s-.3-2.6-.8-3.7-1.2-2-2.2-2.6c-.9-.7-2.1-1-3.4-1-1.3 0-2.5.3-3.5 1-.9.7-1.7 1.5-2.2 2.6-.5 1.1-.7 2.3-.7 3.7 0 1.4.2 2.6.7 3.8.5 1.1 1.3 2 2.2 2.6 1 .7 2.2 1 3.5 1zm19.2 5.1V49.3c0-2.2.6-3.9 1.9-5.2 1.3-1.3 3-1.9 5.2-1.9h6.9v5.7h-5.7c-.4 0-.8.1-1.1.4-.3.3-.4.7-.4 1.1v17.7h-6.8zm30.3 0c-2.8 0-5.3-.5-7.4-1.6-2.1-1.1-3.7-2.6-4.9-4.5-1.1-1.9-1.7-4-1.7-6.4 0-2.6.5-4.9 1.6-6.9s2.5-3.5 4.4-4.6c1.9-1.1 4-1.6 6.3-1.6 2.8 0 5.1.6 6.8 1.8 1.8 1.2 3.1 2.8 3.9 4.7.8 2 1.2 4.1 1.2 6.6v1.2c0 .4-.1.8-.1 1h-16.9c.3 1 .7 1.9 1.3 2.5.7.7 1.5 1.2 2.4 1.6 1 .3 2.1.5 3.3.5h7v5.7h-7.2zm-7-14.8h10.4c-.1-.6-.2-1.2-.3-1.7-.2-.6-.4-1-.7-1.5-.3-.4-.6-.8-1-1.1-.4-.3-.8-.5-1.4-.7-.5-.2-1.1-.2-1.7-.2-.8 0-1.6.1-2.2.4-.6.3-1.1.7-1.6 1.2-.4.5-.8 1-1 1.7-.2.6-.4 1.2-.5 1.9z" style="fill:#003d80"/></svg>